<?xml version="1.0" encoding="UTF-8"?>
<svg version="1.1" xmlns="http://www.w3.org/2000/svg" width="256" height="256">
<path d="M0 0 C0.33 33.99 0.66 67.98 1 103 C5.6326734 98.94641077 9.94774903 95.09865554 14.21875 90.75 C16.71896185 88.29365151 19.37680516 86.03690632 22.03125 83.75 C24.50667121 81.54962559 26.80806482 79.2053335 29.12646484 76.84204102 C30.92628515 75.0724757 32.78025951 73.42068289 34.6953125 71.77734375 C39.79550872 67.34550581 44.66082807 62.67569094 49.52734375 57.99023438 C50.20667969 57.34505859 50.88601562 56.69988281 51.5859375 56.03515625 C52.49931885 55.15935913 52.49931885 55.15935913 53.43115234 54.26586914 C55 53 55 53 57 53 C57 89.3 57 125.6 57 163 C41.49 163 25.98 163 10 163 C10 158.71 10 154.42 10 150 C14.95 149.67 19.9 149.34 25 149 C17.41 141.41 9.82 133.82 2 126 C1.67 138.21 1.34 150.42 1 163 C-14.84 163 -30.68 163 -47 163 C-47.52141452 140.06221759 -47.52141452 140.06221759 -47.63476562 130.22070312 C-47.71223631 123.52637375 -47.80347211 116.83437388 -47.98071289 110.1418457 C-48.12285035 104.74047726 -48.19987166 99.34160814 -48.23340416 93.9385128 C-48.25727119 91.88624426 -48.30388288 89.8340999 -48.37449074 87.78290749 C-48.96003488 70.05377612 -48.96003488 70.05377612 -42.30890179 62.87236309 C-35.08485193 56 -35.08485193 56 -33 56 C-33 87.02 -33 118.04 -33 150 C-26.73 150 -20.46 150 -14 150 C-14.02664734 148.29777283 -14.05329468 146.59554565 -14.08074951 144.84173584 C-14.32433403 128.77576639 -14.50477089 112.71024665 -14.62174606 96.64284897 C-14.68348615 88.38288697 -14.76757162 80.12430815 -14.90527344 71.86523438 C-15.0253134 64.66201633 -15.10239815 57.45980029 -15.12906194 50.25560975 C-15.1446377 46.44440963 -15.18092325 42.63607449 -15.26876068 38.82579803 C-15.85228367 12.5297219 -15.85228367 12.5297219 -9.72233963 5.58740616 C-3.69001598 0 -3.69001598 0 0 0 Z M40.7028656 85.17687988 C40.15437454 85.72759155 39.60588348 86.27830322 39.04077148 86.84570312 C38.4202037 87.46634644 37.79963593 88.08698975 37.16026306 88.72644043 C36.48733719 89.40452759 35.81441132 90.08261475 35.12109375 90.78125 C34.4344313 91.46932739 33.74776886 92.15740479 33.04029846 92.86633301 C30.83701985 95.07523123 28.63723427 97.28757265 26.4375 99.5 C24.94879566 100.99371681 23.45986637 102.48720945 21.97070312 103.98046875 C18.31118299 107.65104389 14.6545286 111.32445549 11 115 C12.4628119 118.06917343 13.85889221 120.05446917 16.37890625 122.35546875 C17.04881592 122.97389648 17.71872559 123.59232422 18.40893555 124.22949219 C19.47494995 125.19870605 19.47494995 125.19870605 20.5625 126.1875 C22.01942159 127.52865372 23.4751577 128.87109642 24.9296875 130.21484375 C25.6319043 130.86308105 26.33412109 131.51131836 27.05761719 132.17919922 C30.18051563 135.10662211 33.15483944 138.16475998 36.10546875 141.265625 C38.34973277 143.43596873 38.34973277 143.43596873 43 146 C43 125.54 43 105.08 43 84 C41.83152419 83.88800948 41.83152419 83.88800948 40.7028656 85.17687988 Z " fill="#C3902C" transform="translate(121,2)"/>
<path d="M0 0 C0.66 0.66 1.32 1.32 2 2 C0.68 4.31 -0.64 6.62 -2 9 C-2.56847656 8.7834375 -3.13695312 8.566875 -3.72265625 8.34375 C-8.60801969 6.58208305 -12.74416409 5.30583299 -18 6 C-22.7051526 8.45434872 -22.7051526 8.45434872 -25 13 C-25.34578461 18.35966151 -25.45162946 21.61908568 -22 26 C-19.11584117 27.44207941 -16.58278472 27.09394887 -13.375 27.0625 C-11.59222656 27.04896484 -11.59222656 27.04896484 -9.7734375 27.03515625 C-8.40058594 27.01775391 -8.40058594 27.01775391 -7 27 C-7 23.04 -7 19.08 -7 15 C-4.03 15 -1.06 15 2 15 C2 20.61 2 26.22 2 32 C-5.55533183 36.39787972 -12.04379588 39.6827389 -21.05078125 37.50390625 C-27.27995183 35.42751606 -31.02110919 32.00075728 -34.3125 26.3125 C-36.76230076 21.03447397 -36.96698255 15.58966185 -35.45703125 9.984375 C-33.11780112 4.03937025 -29.70537606 -0.14731197 -24 -3 C-15.62714982 -5.55291594 -7.45122902 -4.48711374 0 0 Z " fill="#C3902C" transform="translate(175,180)"/>
<path d="M0 0 C6.25963271 3.12981635 10.47183313 7.46407039 13 14 C14.51951949 21.53100494 14.37916545 29.23922772 14.28320312 36.89013672 C14.25004465 40.49514595 14.32370434 44.08740396 14.40625 47.69140625 C14.53887711 67.51125676 14.53887711 67.51125676 7.546875 74.65625 C2.64775239 79 2.64775239 79 0 79 C0 52.93 0 26.86 0 0 Z " fill="#C3902B" transform="translate(131,4)"/>
<path d="M0 0 C3.3 0 6.6 0 10 0 C10.33 4.29 10.66 8.58 11 13 C12.48148332 11.21024844 13.96011906 9.41813943 15.4375 7.625 C16.26121094 6.62726563 17.08492187 5.62953125 17.93359375 4.6015625 C19.98415834 2.20344705 19.98415834 2.20344705 21 0 C24.96 0 28.92 0 33 0 C33 0.66 33 1.32 33 2 C32.34 2 31.68 2 31 2 C30.63455078 2.8353125 30.63455078 2.8353125 30.26171875 3.6875 C28.23838615 7.39589907 25.34642969 10.38658866 22.58203125 13.5625 C20.76964651 15.78280101 20.76964651 15.78280101 21.23095703 17.87036133 C22.1212428 20.33574633 23.29812513 22.31067399 24.72265625 24.51171875 C25.26083984 25.35154297 25.79902344 26.19136719 26.35351562 27.05664062 C27.19946289 28.35891602 27.19946289 28.35891602 28.0625 29.6875 C29.18027562 31.4193544 30.29626445 33.15236381 31.41015625 34.88671875 C31.90652588 35.65201904 32.40289551 36.41731934 32.91430664 37.20581055 C34 39 34 39 34 40 C30.16981534 40.62335736 26.80602853 40.85033746 23 40 C19.92581571 37.06330159 18.05700392 33.6891918 16 30 C15.02186913 28.65054167 14.0291614 27.3109556 13 26 C10.81005752 29.28491373 10.64722661 30.83095639 10.375 34.6875 C10.30023438 35.68136719 10.22546875 36.67523438 10.1484375 37.69921875 C10.09945312 38.45847656 10.05046875 39.21773437 10 40 C6.7 40 3.4 40 0 40 C0 26.8 0 13.6 0 0 Z " fill="#C4902C" transform="translate(44,177)"/>
<path d="M0 0 C1.65 0 3.3 0 5 0 C6.125 3.75 6.125 3.75 5 6 C4.92818179 8.71760108 4.90700494 11.40859388 4.9375 14.125 C4.94201172 14.87910156 4.94652344 15.63320312 4.95117188 16.41015625 C4.96296501 18.27347127 4.98090058 20.13674555 5 22 C2.73078464 22.13489391 0.4592933 22.23193995 -1.8125 22.3125 C-3.70935547 22.39951172 -3.70935547 22.39951172 -5.64453125 22.48828125 C-9 22 -9 22 -10.90625 19.65625 C-11.96502524 17.0849387 -12.60735531 14.7485128 -13 12 C-14.65 12.66 -16.3 13.32 -18 14 C-18.33 16.64 -18.66 19.28 -19 22 C-20.98 22 -22.96 22 -25 22 C-25.33 20.02 -25.66 18.04 -26 16 C-27.98 16.33 -29.96 16.66 -32 17 C-30.35 17 -28.7 17 -27 17 C-26.67 18.32 -26.34 19.64 -26 21 C-29.46530209 22.73265104 -33.21107035 22.4643626 -37 22 C-39.5625 20.5 -39.5625 20.5 -41 18 C-41.78921838 13.94590978 -41.64370365 11.02992584 -39.4375 7.5 C-36.0761612 5.43148382 -33.88040089 5.51494989 -30 6 C-27.5625 7.5 -27.5625 7.5 -26 9 C-25.67 8.01 -25.34 7.02 -25 6 C-20.38 6 -15.76 6 -11 6 C-11 4.68 -11 3.36 -11 2 C-9.02 2 -7.04 2 -5 2 C-5 2.99 -5 3.98 -5 5 C-4.01 5.33 -3.02 5.66 -2 6 C-1.8125 8.375 -1.8125 8.375 -2 11 C-2.99 11.66 -3.98 12.32 -5 13 C-5 13.99 -5 14.98 -5 16 C-4.01 16.33 -3.02 16.66 -2 17 C-1.83222817 15.20843648 -1.66581706 13.4167455 -1.5 11.625 C-1.4071875 10.62726563 -1.314375 9.62953125 -1.21875 8.6015625 C-0.97207053 6.10296264 -0.97207053 6.10296264 -1 4 C-0.68521554 2.66216607 -0.35412344 1.32796291 0 0 Z M-35 11 C-31 12 -31 12 -31 12 Z " fill="#C3912C" transform="translate(162,226)"/>
<path d="M0 0 C2.92709778 2.71291989 4.25602364 4.60073496 5.5625 8.375 C5.5625 11.015 5.5625 13.655 5.5625 16.375 C-1.0375 16.375 -7.6375 16.375 -14.4375 16.375 C-12.71569788 19.68273033 -12.71569788 19.68273033 -9.25 20.1875 C-4.99379214 20.3968217 -2.41860059 19.75619816 1.5625 18.375 C3.125 20.1875 3.125 20.1875 4.5625 22.375 C3.5625 25.375 3.5625 25.375 1.8125 26.359375 C-3.86042342 28.28974478 -8.59101691 28.99351792 -14.4375 27.375 C-18.79585033 25.11511464 -21.66509502 23.00294634 -23.4375 18.375 C-24.09612967 13.05717528 -24.08810637 8.77630603 -21.8125 3.875 C-15.79706267 -2.45703929 -7.84893332 -3.71040484 0 0 Z M-12.8125 6.6875 C-14.6687139 8.22465539 -14.6687139 8.22465539 -14.4375 10.375 C-10.8075 10.375 -7.1775 10.375 -3.4375 10.375 C-3.7675 9.055 -4.0975 7.735 -4.4375 6.375 C-8.75623812 5.232958 -8.75623812 5.232958 -12.8125 6.6875 Z " fill="#C4912B" transform="translate(131.4375,189.625)"/>
<path d="M0 0 C4.2196672 1.88378 5.60436215 3.30103979 7.875 7.3125 C9 11 9 11 9 18 C2.4 18 -4.2 18 -11 18 C-9.27819788 21.30773033 -9.27819788 21.30773033 -5.8125 21.8125 C-1.55629214 22.0218217 1.01889941 21.38119816 5 20 C5.99 21.98 6.98 23.96 8 26 C2.86094307 29.11048183 -2.03551238 30.2945426 -8 30 C-12.44978252 28.7808815 -15.29798992 26.71956033 -18.5 23.4375 C-20.62970224 18.55693237 -20.77268797 14.24491229 -20 9 C-15.71657391 0.11585699 -9.21475346 -1.19074641 0 0 Z M-9.875 9.4375 C-10.57625 10.283125 -11.2775 11.12875 -12 12 C-8.04 12 -4.08 12 0 12 C-0.33 10.68 -0.66 9.36 -1 8 C-5.27113669 6.70872612 -6.36024024 6.45759499 -9.875 9.4375 Z " fill="#C4912C" transform="translate(97,188)"/>
<path d="M0 0 C3.90863741 1.95431871 6.98579156 4.07759409 9 8 C10.53166876 14.10292823 10.17486402 18.41661845 7 24 C4.13928495 27.64987782 1.53495911 29.05878207 -3 30 C-8.25854382 30 -12.83431583 29.43056343 -17 26 C-20.40744039 21.86239381 -21.14397979 17.24626352 -21 12 C-19.45132808 6.75172294 -17.54275781 4.0285052 -13 1 C-9.05349633 -0.97325184 -4.30133287 -0.44349901 0 0 Z M-10.375 9.5625 C-12.35215682 12.01503412 -12.35215682 12.01503412 -11.875 15.625 C-11.29259286 19.04542055 -11.29259286 19.04542055 -9 21 C-4.15693761 21.5889841 -4.15693761 21.5889841 0 19.4375 C1.43135511 15.94857191 0.933966 13.60244028 0 10 C-3.98338636 7.34440909 -6.28942481 6.87462159 -10.375 9.5625 Z " fill="#C3912B" transform="translate(202,188)"/>
<path d="M0 0 C2 1.5 2 1.5 3 3 C3.515625 2.505 4.03125 2.01 4.5625 1.5 C7.84816934 -0.52195036 10.20442221 -0.27604202 14 0 C14.99 0.33 15.98 0.66 17 1 C16.34 2.65 15.68 4.3 15 6 C15.66 6.66 16.32 7.32 17 8 C16.75 11.5625 16.75 11.5625 16 15 C12.12937878 16.93531061 7.38277058 16.27192404 3.125 16.3125 C1.61486328 16.35600586 1.61486328 16.35600586 0.07421875 16.40039062 C-7.30135261 16.46405758 -7.30135261 16.46405758 -10.6640625 14.23046875 C-12.7554963 10.73863044 -12.77563615 7.94281708 -12 4 C-8.99732176 -1.00446374 -5.31746703 -0.59082967 0 0 Z M-6 5 C-2 6 -2 6 -2 6 Z M4 8 C4 8.66 4 9.32 4 10 C0.7 10 -2.6 10 -6 10 C-2.71324342 12.19117105 -1.76450466 12.09652576 2 12 C2.66 12.33 3.32 12.66 4 13 C4.99 11.68 5.98 10.36 7 9 C6.01 8.67 5.02 8.34 4 8 Z " fill="#C4912C" transform="translate(181,232)"/>
<path d="M0 0 C11 0 11 0 15 2 C16.59474241 5.18948483 16.37691092 8.52957489 16 12 C14.9375 13.9375 14.9375 13.9375 13 15 C9.3125 15.6875 9.3125 15.6875 6 16 C6 17.98 6 19.96 6 22 C4.02 22 2.04 22 0 22 C0 14.74 0 7.48 0 0 Z M6 6 C6 6.99 6 7.98 6 9 C7.32 9 8.64 9 10 9 C9.67 8.01 9.34 7.02 9 6 C8.01 6 7.02 6 6 6 Z " fill="#C4912B" transform="translate(58,226)"/>
<path d="M0 0 C12.43430832 -0.36933589 12.43430832 -0.36933589 14.890625 1.234375 C16.99405706 4.58209082 16.60969453 8.20482281 16 12 C14.375 14.5625 14.375 14.5625 12 16 C8.75 16.25 8.75 16.25 6 16 C6 17.98 6 19.96 6 22 C4.02 22 2.04 22 0 22 C0 14.74 0 7.48 0 0 Z M7 5 C5.70366379 6.06645115 5.70366379 6.06645115 5.9375 8.5625 C5.958125 9.366875 5.97875 10.17125 6 11 C7.32 10.67 8.64 10.34 10 10 C9.67 8.35 9.34 6.7 9 5 C8.34 5 7.68 5 7 5 Z " fill="#C4922C" transform="translate(104,232)"/>
<path d="M0 0 C2.375 1.0625 2.375 1.0625 4 3 C5.11272738 7.00581858 5.43651903 9.08727839 3.625 12.875 C1.26395396 15.96252175 1.26395396 15.96252175 -0.92578125 16.2734375 C-7.28589421 16.5440806 -7.28589421 16.5440806 -10.625 14 C-12.44897396 10.02042045 -12.37736722 7.13210167 -11 3 C-7.9733733 -0.72507902 -4.5605459 -0.48862992 0 0 Z M-4 5 C-4.99 5.495 -4.99 5.495 -6 6 C-5.67 7.65 -5.34 9.3 -5 11 C-3.68 10.67 -2.36 10.34 -1 10 C-1.34786708 8.02463255 -1.34786708 8.02463255 -2 6 C-2.66 5.67 -3.32 5.34 -4 5 Z " fill="#C4912B" transform="translate(98,232)"/>
<path d="M0 0 C3.96 0 7.92 0 12 0 C11.67 1.98 11.34 3.96 11 6 C9.68 6.33 8.36 6.66 7 7 C6.67 9.97 6.34 12.94 6 16 C4.02 16 2.04 16 0 16 C0 10.72 0 5.44 0 0 Z " fill="#C4922B" transform="translate(75,232)"/>
<path d="M0 0 C-0.33 0.66 -0.66 1.32 -1 2 C-3.31 2 -5.62 2 -8 2 C-8 1.34 -8 0.68 -8 0 C-4.71303767 -0.79953138 -3.28976808 -1.09658936 0 0 Z " fill="#CB892A" transform="translate(162,246)"/>
</svg>
