<?xml version="1.0" encoding="UTF-8"?>
<svg version="1.1" xmlns="http://www.w3.org/2000/svg" width="512" height="512">
<path d="M0 0 C0.33 69.3 0.66 138.6 1 210 C6.61 204.72 12.22 199.44 18 194 C22.38373849 189.90371977 26.76808389 185.80823974 31.15722656 181.71777344 C34.27293906 178.81340763 37.38634111 175.90656701 40.5 173 C41.74998918 171.83332174 42.99998917 170.66665507 44.25 169.5 C44.86875 168.9225 45.4875 168.345 46.125 167.75 C48 166 49.875 164.25 51.75 162.5 C52.36891113 161.92233887 52.98782227 161.34467773 53.62548828 160.74951172 C54.87381737 159.58442625 56.12218967 158.41938709 57.37060547 157.25439453 C60.52152888 154.31391631 63.67166566 151.37260346 66.8203125 148.4296875 C73.19534458 142.47274386 79.58237763 136.52993949 86.00292969 130.62207031 C89.05749473 127.80693229 92.09569935 124.97539075 95.12109375 122.12890625 C95.82758057 121.46431396 96.53406738 120.79972168 97.26196289 120.11499023 C98.62836697 118.82815492 99.99352529 117.53999498 101.35717773 116.25024414 C113.30133657 105 113.30133657 105 115 105 C115 177.93 115 250.86 115 326 C84.31 326 53.62 326 22 326 C22 317.42 22 308.84 22 300 C32.23 299.67 42.46 299.34 53 299 C36.83 282.83 20.66 266.66 4 250 C3.67 275.08 3.34 300.16 3 326 C-28.35 326 -59.7 326 -92 326 C-93.00757586 279.86198205 -93.00757586 279.86198205 -93.22070312 260.39257812 C-93.36854569 246.99534385 -93.54144456 233.6020652 -93.88598633 220.20825195 C-94.13691252 210.44893804 -94.29684843 200.69285825 -94.35221237 190.93040794 C-94.3845367 185.76955377 -94.45917264 180.61794134 -94.64325142 175.46008492 C-95.84683734 140.42066764 -95.84683734 140.42066764 -84.68470782 127.88675517 C-79.35281081 122.31955377 -73.48230961 117.18599035 -67 113 C-66.34 113 -65.68 113 -65 113 C-65 175.04 -65 237.08 -65 301 C-52.13 301 -39.26 301 -26 301 C-26.01776489 297.54526718 -26.03552979 294.09053436 -26.05383301 290.53111267 C-26.21301936 258.85181321 -26.33245296 227.17257843 -26.40852264 195.49296844 C-26.41852831 191.34109602 -26.42888289 187.18922453 -26.43945312 183.03735352 C-26.44155161 182.2107894 -26.44365009 181.38422528 -26.44581217 180.53261376 C-26.4806245 167.14825373 -26.54370184 153.76416853 -26.61722237 140.37997156 C-26.69203015 126.6469142 -26.73646922 112.9140008 -26.75270796 99.18074805 C-26.76368612 90.70615277 -26.79835972 82.2323343 -26.86333174 73.75797815 C-26.90561447 67.94705826 -26.91840224 62.13654004 -26.90801102 56.32547747 C-26.90288507 52.97195898 -26.91511427 49.62089204 -26.9536438 46.26742744 C-26.99339367 42.6297893 -26.98390288 38.99548655 -26.96203613 35.35777283 C-26.98533886 34.30037004 -27.0086416 33.24296725 -27.03265047 32.15352196 C-26.91842298 25.13396648 -26.91842298 25.13396648 -24.2408886 21.82804501 C-22.23637171 20.06339931 -20.18945213 18.52472774 -18 17 C-16.49239235 15.55241455 -15.00020229 14.08830193 -13.53515625 12.59765625 C-12.79845703 11.85322266 -12.06175781 11.10878906 -11.30273438 10.34179688 C-10.56345703 9.58962891 -9.82417969 8.83746094 -9.0625 8.0625 C-7.55565907 6.53031272 -6.04666913 5.00023481 -4.53515625 3.47265625 C-3.879104 2.80500244 -3.22305176 2.13734863 -2.54711914 1.44946289 C-1 0 -1 0 0 0 Z M84.06005859 167.81054688 C83.4420639 168.4253894 82.82406921 169.04023193 82.18734741 169.67370605 C81.51450714 170.34857056 80.84166687 171.02343506 80.1484375 171.71875 C79.45618073 172.41005005 78.76392395 173.1013501 78.0506897 173.81359863 C76.5782971 175.28530846 75.10717561 176.75829089 73.63720703 178.23242188 C71.40895883 180.46596054 69.17551574 182.69420102 66.94140625 184.921875 C65.51009645 186.35384667 64.07909745 187.78612908 62.6484375 189.21875 C61.98774261 189.87742065 61.32704773 190.53609131 60.64633179 191.21472168 C56.83144055 195.04849344 53.22052158 198.99818904 49.68518066 203.09020996 C47.11598327 206.00184293 44.38706907 208.73731634 41.62890625 211.46875 C41.06171371 212.03452759 40.49452118 212.60030518 39.91014099 213.18322754 C38.12996577 214.95788577 36.34631481 216.72900099 34.5625 218.5 C33.3415631 219.71591114 32.12085808 220.93205516 30.90039062 222.1484375 C27.93625987 225.10164966 24.96901042 228.05169398 22 231 C23.79308995 234.86010998 26.08023148 237.31437835 29.125 240.3125 C29.6214502 240.80250488 30.11790039 241.29250977 30.62939453 241.79736328 C33.90237701 245.00266534 37.28840703 248.02345784 40.7734375 250.9921875 C43.79581803 253.7176324 46.63918241 256.60665926 49.5 259.5 C53.50912579 263.5546517 57.55864504 267.43978152 61.91015625 271.12890625 C64.7191204 273.64384798 67.35089376 276.31852262 70 279 C75.69567442 284.75892999 81.51171163 290.13378372 88 295 C88 252.1 88 209.2 88 165 C86.22581718 165 85.26149201 166.61086685 84.06005859 167.81054688 Z " fill="#C3902C" transform="translate(241,4)"/>
<path d="M0 0 C0.66 0 1.32 0 2 0 C3.96868585 2.33207412 5.76198061 4.7407608 7.55249977 7.21012402 C9.97135188 10.49133537 12.43694678 13.51872085 15.33847046 16.38606262 C25.42624595 26.6936268 26.92161027 35.60964084 26.77183914 49.7399044 C26.75689785 50.84022814 26.74195656 51.94055187 26.7265625 53.07421875 C26.73534265 55.37435125 26.74797845 57.67447191 26.76425171 59.9745636 C26.78330162 64.7688103 26.75594942 69.55988519 26.69482422 74.35375977 C26.62061194 80.46852526 26.66353095 86.57588997 26.74126625 92.69038677 C26.78845878 97.43098305 26.77320013 102.16985042 26.73960495 106.91050148 C26.73099776 109.16333735 26.74134602 111.41633562 26.77183914 113.66898155 C26.97611031 132.98823002 26.97611031 132.98823002 20.43013573 140.02560902 C18.22507307 142.08801963 15.93597392 143.97175238 13.52543259 145.78808022 C11.36530056 147.50425355 9.63495157 149.50988389 7.875 151.625 C4.0223384 156.19629278 4.0223384 156.19629278 2 158 C1.34 158 0.68 158 0 158 C0 105.86 0 53.72 0 0 Z " fill="#C3902C" transform="translate(263,7)"/>
<path d="M0 0 C1.03125 0.721875 2.0625 1.44375 3.125 2.1875 C1.75908831 5.72993452 0.21568516 9.11377929 -1.5 12.5 C-2.16902344 13.82451172 -2.16902344 13.82451172 -2.8515625 15.17578125 C-3.18929687 15.83964844 -3.52703125 16.50351562 -3.875 17.1875 C-6.47348746 16.18193704 -8.99468357 15.12863923 -11.49609375 13.8984375 C-20.44163646 9.6551981 -29.65567909 8.3483573 -39.3125 11.1875 C-45.07909396 13.8165708 -48.88304127 18.85855342 -51.3125 24.5625 C-52.65887333 33.23912812 -52.33306238 40.4066582 -47.875 48.1875 C-43.74018664 53.30096741 -37.6634571 55.77287126 -31.26953125 56.47265625 C-24.18696015 56.70241526 -20.22633798 55.39290139 -12.875 53.1875 C-12.875 45.9275 -12.875 38.6675 -12.875 31.1875 C-7.595 31.1875 -2.315 31.1875 3.125 31.1875 C3.30946654 35.49684334 3.46828715 39.79238021 3.56445312 44.10253906 C3.60453636 45.56557725 3.65902447 47.02829786 3.72851562 48.49023438 C4.28691305 60.54504932 4.28691305 60.54504932 1.54589844 64.41967773 C-0.52907052 66.0387823 -2.46704139 67.13509309 -4.875 68.1875 C-6.59976563 69.00154297 -6.59976563 69.00154297 -8.359375 69.83203125 C-9.43703125 70.21746094 -10.5146875 70.60289062 -11.625 71 C-12.71296875 71.39832031 -13.8009375 71.79664063 -14.921875 72.20703125 C-26.60076079 76.08454492 -39.67406566 75.28294523 -50.875 70.1875 C-60.78982382 64.34456566 -67.21387279 55.85011913 -70.21875 44.7890625 C-72.66232961 31.3784649 -70.98047181 19.11141492 -63.60546875 7.51171875 C-48.64954026 -12.575815 -19.79280697 -12.06878474 0 0 Z " fill="#C3902C" transform="translate(349.875,360.8125)"/>
<path d="M0 0 C-0.66644531 0.77601563 -1.33289063 1.55203125 -2.01953125 2.3515625 C-7.10060345 8.29575661 -12.09827918 14.29416844 -16.9375 20.4375 C-17.38520752 21.00355957 -17.83291504 21.56961914 -18.29418945 22.15283203 C-21.04514451 25.66837324 -23.5694549 29.26113364 -26 33 C-23.89702617 36.31325861 -21.7924475 39.62549497 -19.6875 42.9375 C-19.05682617 43.93064209 -18.42615234 44.92378418 -17.77636719 45.94702148 C-14.77226932 50.67093886 -11.75838183 55.38691991 -8.69140625 60.0703125 C-8.19229736 60.83351807 -7.69318848 61.59672363 -7.17895508 62.38305664 C-6.24900714 63.80141393 -5.31543383 65.21740304 -4.37768555 66.63061523 C-2.17216064 69.99685334 -0.32416653 73.16727356 1 77 C-5.91308326 78.19978328 -13.22111109 79.23288092 -20 77 C-25.19826298 72.70015658 -27.95953211 66.313795 -30.82910156 60.33837891 C-32.37543542 57.2502251 -34.21064133 54.59747399 -36.25 51.8125 C-37.16741111 50.54220397 -38.08422357 49.271475 -39 48 C-44.69970613 54.06231601 -45.89761482 58.80212628 -45.875 67 C-45.895625 67.96550781 -45.91625 68.93101562 -45.9375 69.92578125 C-45.98418718 72.28348399 -45.99572797 74.64183892 -46 77 C-51.94 77 -57.88 77 -64 77 C-64 51.26 -64 25.52 -64 -1 C-58.06 -1 -52.12 -1 -46 -1 C-45.67 8.9 -45.34 18.8 -45 29 C-39.45195425 21.95824962 -33.90974409 14.91336388 -28.4375 7.8125 C-27.63183594 6.76707031 -26.82617188 5.72164063 -25.99609375 4.64453125 C-24.60726963 2.80454313 -23.27874803 0.91812204 -22 -1 C-19.96875 -1.46411133 -19.96875 -1.46411133 -17.5 -1.58203125 C-16.613125 -1.62650391 -15.72625 -1.67097656 -14.8125 -1.71679688 C-13.884375 -1.74837891 -12.95625 -1.77996094 -12 -1.8125 C-11.071875 -1.86341797 -10.14375 -1.91433594 -9.1875 -1.96679688 C-2.26367596 -2.26367596 -2.26367596 -2.26367596 0 0 Z " fill="#C3902C" transform="translate(153,356)"/>
<path d="M0 0 C7.0834426 7.40541726 9.09800085 15.83310819 8.953125 25.78125 C8.35838422 34.83960953 4.49646591 40.87413282 -2.25 46.875 C-10.38997464 52.21823833 -18.68139957 52.61899485 -28.25 51.875 C-36.02192962 49.9682866 -41.63972787 46.28285528 -46.5 39.9375 C-51.34566929 31.45757875 -51.63632433 21.29193835 -49.59765625 11.85546875 C-47.19418045 5.14017799 -43.22074639 0.14399793 -37.0078125 -3.40625 C-24.23745731 -9.42594605 -11.60146477 -7.58557312 0 0 Z M-31.25 11.875 C-34.77123536 16.85329827 -35.10343757 21.97765053 -34.25 27.875 C-32.43766463 31.70878636 -30.94973473 33.40851018 -27.4375 35.75 C-22.76988146 37.39739478 -19.14417849 37.71196259 -14.5625 35.6875 C-10.78327782 32.72540694 -8.65836034 30.29064919 -7.3125 25.625 C-7.23282376 20.84442581 -8.02329944 17.11555473 -10.25 12.875 C-13.73073203 9.39426797 -16.53429359 8.62237108 -21.3125 8.4375 C-25.39194466 8.62738406 -28.13661452 9.04464956 -31.25 11.875 Z " fill="#C3902B" transform="translate(414.25,383.125)"/>
<path d="M0 0 C4.99630832 4.84842604 7.4135364 10.30159812 9 17 C9 20.96 9 24.92 9 29 C-4.53 29 -18.06 29 -32 29 C-28.36225172 36.24676604 -28.36225172 36.24676604 -22 39 C-14.52345718 39.78908104 -8.3912413 39.44652596 -1.70703125 35.875 C0 35 0 35 2 35 C3.65 38.63 5.3 42.26 7 46 C-4.39981295 51.93414921 -14.93147318 55.25394635 -27.9140625 52.34765625 C-36.70377799 49.17737187 -43.0363413 43.40295644 -47 35 C-49.33295731 27.90654873 -49.24711346 17.9002228 -46.375 11 C-41.44754027 1.89788689 -35.04518422 -2.8558135 -25.125 -5.875 C-15.88059106 -6.24477636 -7.70102653 -5.53210997 0 0 Z M-30.375 13.5625 C-32.18490007 15.78909836 -32.18490007 15.78909836 -32 18 C-23.75 18 -15.5 18 -7 18 C-7.53379726 13.14318599 -7.53379726 13.14318599 -10 10.75 C-17.43268307 6.41426821 -24.44185166 7.16094521 -30.375 13.5625 Z " fill="#C3902C" transform="translate(202,382)"/>
<path d="M0 0 C5.63544018 4.84604 8.40880508 9.79282301 10 17 C10 21.29 10 25.58 10 30 C-3.53 30 -17.06 30 -31 30 C-29.515 32.475 -29.515 32.475 -28 35 C-28 35.66 -28 36.32 -28 37 C-27.21625 37.309375 -26.4325 37.61875 -25.625 37.9375 C-23 39 -23 39 -21 40 C-12.16605518 40.79362391 -5.06790963 39.62166685 3 36 C3.86646667 37.43011973 4.71781829 38.86940619 5.5625 40.3125 C6.03816406 41.11300781 6.51382813 41.91351563 7.00390625 42.73828125 C8 45 8 45 7 48 C4.41796875 49.3515625 4.41796875 49.3515625 1.1875 50.625 C-0.39998047 51.26308594 -0.39998047 51.26308594 -2.01953125 51.9140625 C-11.6652073 55.42847658 -22.1078306 55.25328945 -31.59765625 51.25390625 C-38.70086091 47.54637992 -42.89726219 42.3722076 -46 35 C-48.36582757 25.61155767 -47.62381993 16.24290473 -42.74609375 7.83984375 C-38.27241176 1.31826374 -32.88970183 -2.51963601 -25.1875 -4.375 C-16.42853476 -5.77213556 -7.54326689 -4.92447235 0 0 Z M-27 12 C-29.73225734 15.15814239 -29.73225734 15.15814239 -31 19 C-22.75 19 -14.5 19 -6 19 C-7.00368494 13.98157528 -7.29441472 13.05165846 -11 10 C-16.94678461 8.01773846 -21.77919086 8.51946057 -27 12 Z " fill="#C3902C" transform="translate(263,381)"/>
<path d="M0 0 C20 0 20 0 27 3 C31.17530992 7.39506307 32.32249735 10.86139425 32.2109375 16.94140625 C31.87656501 20.20463408 30.83882194 22.30306116 29 25 C24.68123244 28.32904999 21.27375669 30.1520288 15.8125 30.0625 C13.9253125 30.0315625 13.9253125 30.0315625 12 30 C12 34.29 12 38.58 12 43 C8.04 43 4.08 43 0 43 C0 28.81 0 14.62 0 0 Z M12 11 C12 13.64 12 16.28 12 19 C14.91652174 19.16681109 14.91652174 19.16681109 18 19 C18.66 18.34 19.32 17.68 20 17 C19.71016731 13.69316534 19.71016731 13.69316534 18 11 C16.00041636 10.95919217 13.99954746 10.95745644 12 11 Z " fill="#C3902C" transform="translate(116,453)"/>
<path d="M0 0 C3.56773462 3.06807645 5.77727477 6.51147389 6.203125 11.26953125 C6.33449831 18.39653311 5.36943741 22.46131706 0.375 27.8125 C-3.31920474 30.6919428 -7.40824157 31.12244689 -12 31 C-12.99 30.67 -13.98 30.34 -15 30 C-15 33.63 -15 37.26 -15 41 C-20.445 41.495 -20.445 41.495 -26 42 C-26.02464574 36.03686834 -26.042834 30.07376605 -26.05493164 24.1105957 C-26.05997278 22.08031702 -26.06680557 20.05004198 -26.07543945 18.01977539 C-26.08751467 15.10822653 -26.09323034 12.1967255 -26.09765625 9.28515625 C-26.10281754 8.3716188 -26.10797882 7.45808136 -26.11329651 6.51686096 C-26.11349168 4.34424573 -26.06211805 2.17172704 -26 0 C-25 -1 -25 -1 -23.0390625 -1.09765625 C-22.24242187 -1.08605469 -21.44578125 -1.07445312 -20.625 -1.0625 C-19.43777344 -1.04896484 -19.43777344 -1.04896484 -18.2265625 -1.03515625 C-17.49179688 -1.02355469 -16.75703125 -1.01195312 -16 -1 C-13.10158958 -0.86263944 -13.10158958 -0.86263944 -10.8125 -1.625 C-6.86525366 -2.15129951 -3.64012856 -1.63254251 0 0 Z M-15 10 C-15.36460453 12.66653905 -15.36460453 12.66653905 -15.1875 15.625 C-15.16042969 16.62789063 -15.13335937 17.63078125 -15.10546875 18.6640625 C-15.07066406 19.43492187 -15.03585938 20.20578125 -15 21 C-10.1632111 21.50367306 -10.1632111 21.50367306 -6 19.4375 C-4.58029674 15.97697331 -5.13698485 13.58483216 -6 10 C-6.66 9.34 -7.32 8.68 -8 8 C-12.04622502 7.63019987 -12.04622502 7.63019987 -15 10 Z " fill="#C4902B" transform="translate(234,466)"/>
<path d="M0 0 C3.6501152 3.04049262 6.2598293 6.23935661 7 11 C7 13.31 7 15.62 7 18 C0.4 18 -6.2 18 -13 18 C-10.2480172 21.41209741 -10.2480172 21.41209741 -6.125 21.25 C-2.99966243 21.13467389 -0.04198129 20.76049532 3 20 C6 24.75 6 24.75 6 27 C0.32111773 30.43721822 -5.67709872 31.77436319 -12.24609375 30.59765625 C-17.3952546 28.95265023 -19.96414232 26.41579299 -23 22 C-24.7354912 16.7935264 -24.66344383 11.85065911 -22.8125 6.6875 C-20.02337022 2.55189378 -17.33274895 0.56385532 -12.75 -1.375 C-8.02152328 -2.16307945 -4.40019367 -1.97250061 0 0 Z M-12 8 C-12.33 8.99 -12.66 9.98 -13 11 C-9.7 11 -6.4 11 -3 11 C-3.66 10.01 -4.32 9.02 -5 8 C-8.58357241 7.74984127 -8.58357241 7.74984127 -12 8 Z " fill="#C4902C" transform="translate(362,466)"/>
<path d="M0 0 C3.52942974 3.84085001 4.90846021 7.61111594 5.5625 12.75 C4.83763176 18.65249852 2.85233234 22.74584974 -1.5625 26.75 C-7.1491375 29.38520637 -11.66103138 29.93979111 -17.625 28.25 C-22.23195296 25.50354727 -25.13977648 22.51817055 -26.875 17.3125 C-27.43930864 11.61515311 -27.16086378 7.18464284 -23.875 2.3125 C-16.7883315 -4.7741685 -8.30535359 -4.87488146 0 0 Z M-15.875 9.4375 C-17.15292963 13.11154768 -16.41688454 14.82297182 -14.875 18.3125 C-11.93141676 19.21192821 -10.43139535 19.5531034 -7.5625 18.3125 C-5.53564901 16.28993216 -5.53564901 16.28993216 -5.5 12.75 C-5.51860592 9.25139246 -5.51860592 9.25139246 -7.875 7.3125 C-11.68149324 6.74557548 -13.17594621 6.56975535 -15.875 9.4375 Z " fill="#C3902B" transform="translate(199.875,467.6875)"/>
<path d="M0 0 C4.80003927 5.69048134 4.44005437 9.39060317 4.34765625 16.59765625 C-1.92234375 16.92765625 -8.19234375 17.25765625 -14.65234375 17.59765625 C-9.63431719 20.94300729 -4.36246352 19.71182596 1.34765625 18.59765625 C2.66516211 20.7676659 3.39844528 22.05970715 3.15625 24.625 C2.34765625 26.59765625 2.34765625 26.59765625 0.59765625 27.6796875 C-6.16124576 29.87398381 -11.90554063 30.34616437 -18.46484375 27.28515625 C-21.87857108 24.65170945 -24.26862961 22.74879867 -25.65234375 18.59765625 C-26.34624166 11.45392035 -26.09422165 6.36009245 -21.65234375 0.59765625 C-15.68090468 -4.11663775 -6.1153606 -5.1901051 0 0 Z M-13.65234375 6.59765625 C-14.64234375 8.08265625 -14.64234375 8.08265625 -15.65234375 9.59765625 C-12.35234375 9.59765625 -9.05234375 9.59765625 -5.65234375 9.59765625 C-5.98234375 8.60765625 -6.31234375 7.61765625 -6.65234375 6.59765625 C-10.06877134 6.34749752 -10.06877134 6.34749752 -13.65234375 6.59765625 Z " fill="#C4902B" transform="translate(267.65234375,467.40234375)"/>
<path d="M0 0 C-1.875 5.75 -1.875 5.75 -3 8 C-6.3 7.67 -9.6 7.34 -13 7 C-12.15695312 7.38671875 -11.31390625 7.7734375 -10.4453125 8.171875 C-9.34960938 8.69265625 -8.25390625 9.2134375 -7.125 9.75 C-6.03445313 10.26046875 -4.94390625 10.7709375 -3.8203125 11.296875 C-0.91969014 13.04849737 0.03584634 13.81087635 1 17 C0.86341347 20.82442281 0.58626852 23.19659499 -1.6875 26.3125 C-6.89187152 30.11028462 -11.39338215 30.25924118 -17.5859375 29.4921875 C-20.71879989 28.85344857 -23.27412108 27.64987408 -26 26 C-24.125 20.25 -24.125 20.25 -23 18 C-17.06 18.99 -17.06 18.99 -11 20 C-13.37594974 18.4160335 -15.42640288 17.33294569 -18 16.1875 C-21.61919304 14.38123607 -23.58967715 12.94890398 -25 9 C-24.92797337 5.47069506 -24.44314031 3.61357888 -22.375 0.75 C-15.10217566 -4.6089232 -7.935254 -2.64508467 0 0 Z " fill="#C4902B" transform="translate(395,467)"/>
<path d="M0 0 C0 2.64 0 5.28 0 8 C2.31 8 4.62 8 7 8 C8.231394 11.69418201 7.64432764 14.2056261 7 18 C4.69 18 2.38 18 0 18 C0.33 21.96 0.66 25.92 1 30 C2.98 30 4.96 30 7 30 C9.31141604 32.85074644 10 34.3139451 10 38 C4.89690047 39.7704631 1.38493774 40.39609497 -4 39 C-6.70567626 37.17660948 -8.53728718 35.92542564 -10 33 C-10.0716735 30.44842345 -10.09308442 27.92527029 -10.0625 25.375 C-10.05798828 24.66859375 -10.05347656 23.9621875 -10.04882812 23.234375 C-10.03703875 21.48954725 -10.01910324 19.744763 -10 18 C-11.32 18 -12.64 18 -14 18 C-14 15.03 -14 12.06 -14 9 C-12.68 9 -11.36 9 -10 9 C-10 6.69 -10 4.38 -10 2 C-6.49223216 0.39644899 -3.85645121 -0.22036864 0 0 Z " fill="#C4902C" transform="translate(312,457)"/>
<path d="M0 0 C-0.33 3.63 -0.66 7.26 -1 11 C-4.02734375 11.24414062 -4.02734375 11.24414062 -7.0546875 11.48828125 C-9.39519216 11.87393036 -9.39519216 11.87393036 -11 15 C-11.30066154 17.75417318 -11.50925299 20.42645147 -11.625 23.1875 C-11.68300781 24.31188477 -11.68300781 24.31188477 -11.7421875 25.45898438 C-11.83628216 27.30559199 -11.91922319 29.1527619 -12 31 C-15.63 31 -19.26 31 -23 31 C-23 21.1 -23 11.2 -23 1 C-19.78548731 -0.60725635 -16.56387464 -0.05748185 -13 0 C-12.67 0.66 -12.34 1.32 -12 2 C-10.948125 1.484375 -9.89625 0.96875 -8.8125 0.4375 C-5.13752407 -1.36395879 -4.56339587 -0.91267917 0 0 Z " fill="#C4912B" transform="translate(173,465)"/>
<path d="M0 0 C0 3.63 0 7.26 0 11 C-3.02734375 11.24414062 -3.02734375 11.24414062 -6.0546875 11.48828125 C-8.39519216 11.87393036 -8.39519216 11.87393036 -10 15 C-10.30066154 17.75417318 -10.50925299 20.42645147 -10.625 23.1875 C-10.68300781 24.31188477 -10.68300781 24.31188477 -10.7421875 25.45898438 C-10.83628216 27.30559199 -10.91922319 29.1527619 -11 31 C-14.63 31 -18.26 31 -22 31 C-22 21.1 -22 11.2 -22 1 C-18.78548731 -0.60725635 -15.56387464 -0.05748185 -12 0 C-11.67 0.66 -11.34 1.32 -11 2 C-9.9275 1.484375 -8.855 0.96875 -7.75 0.4375 C-4.38885473 -1.17843523 -3.99116285 -0.99779071 0 0 Z " fill="#C3902B" transform="translate(297,465)"/>
<path d="M0 0 C3.3 0 6.6 0 10 0 C10 10.23 10 20.46 10 31 C6.7 31 3.4 31 0 31 C0 20.77 0 10.54 0 0 Z " fill="#C4902C" transform="translate(324,465)"/>
<path d="M0 0 C2 2 2 2 2.3125 4.4375 C2 7 2 7 0.875 8.8125 C-1.87155972 10.55198782 -3.81846974 10.39769128 -7 10 C-8.875 8.8125 -8.875 8.8125 -10 7 C-10.4375 4.5 -10.4375 4.5 -10 2 C-6.89011997 -1.58832311 -4.37100102 -1.2352829 0 0 Z " fill="#C4912C" transform="translate(333,453)"/>
</svg>
